<svg width="269" height="269" viewBox="0 0 269 269" fill="none" xmlns="http://www.w3.org/2000/svg">
<path d="M201.448 141.768C201.784 178.044 233.272 190.116 233.622 190.27C233.353 191.125 228.593 207.476 217.031 224.365C207.04 238.968 196.673 253.523 180.332 253.821C164.288 254.114 159.124 244.3 140.774 244.3C122.425 244.3 116.694 253.523 101.495 254.114C85.7301 254.714 73.7212 238.324 63.6433 223.774C43.06 194.012 27.3283 139.674 48.4544 102.993C58.9454 84.7783 77.7034 73.2449 98.0561 72.9519C113.538 72.6541 128.155 83.366 137.618 83.366C147.081 83.366 164.84 70.4829 183.512 72.3755C191.327 72.7021 213.265 75.5314 227.354 96.1531C226.22 96.8593 201.174 111.438 201.448 141.768ZM171.282 52.6856C179.654 42.5501 185.289 28.4468 183.752 14.4108C171.685 14.8959 157.092 22.4519 148.436 32.5779C140.683 41.5461 133.886 55.904 135.721 69.6614C149.171 70.699 162.909 62.826 171.282 52.6856Z" fill="white"/>
</svg>
