<svg width="198" height="198" viewBox="0 0 198 198" fill="none" xmlns="http://www.w3.org/2000/svg">
<path d="M198 99C198 44.3242 153.676 0 99 0C44.3242 0 0 44.3242 0 99C0 148.413 36.2031 189.371 83.5312 196.797V127.617H58.3945V99H83.5312V77.1891C83.5312 52.3772 98.3116 38.6719 120.925 38.6719C131.757 38.6719 143.086 40.6055 143.086 40.6055V64.9688H130.603C118.304 64.9688 114.469 72.6003 114.469 80.4298V99H141.926L137.537 127.617H114.469V196.797C161.797 189.371 198 148.414 198 99Z" fill="#1877F2"/>
<path d="M137.537 127.617L141.926 99H114.469V80.4298C114.469 72.5995 118.304 64.9688 130.603 64.9688H143.086V40.6055C143.086 40.6055 131.757 38.6719 120.925 38.6719C98.3116 38.6719 83.5312 52.3772 83.5312 77.1891V99H58.3945V127.617H83.5312V196.797C88.6485 197.599 93.8203 198.001 99 198C104.18 198.001 109.352 197.599 114.469 196.797V127.617H137.537Z" fill="white"/>
</svg>
