<svg width="215" height="215" viewBox="0 0 215 215" fill="none" xmlns="http://www.w3.org/2000/svg">
<path d="M195.341 89.9551H188.125V89.5833H107.5V125.417H158.128C150.742 146.276 130.895 161.25 107.5 161.25C77.8166 161.25 53.7501 137.183 53.7501 107.5C53.7501 77.8165 77.8166 53.75 107.5 53.75C121.202 53.75 133.667 58.9189 143.159 67.3621L168.497 42.0235C152.498 27.1124 131.096 17.9166 107.5 17.9166C58.0277 17.9166 17.9167 58.0276 17.9167 107.5C17.9167 156.972 58.0277 197.083 107.5 197.083C156.972 197.083 197.083 156.972 197.083 107.5C197.083 101.493 196.465 95.6302 195.341 89.9551Z" fill="#FFC107"/>
<path d="M28.2463 65.8034L57.6789 87.3885C65.6429 67.6712 84.9302 53.75 107.501 53.75C121.202 53.75 133.668 58.9189 143.159 67.3621L168.498 42.0235C152.498 27.1124 131.097 17.9166 107.501 17.9166C73.0918 17.9166 43.2515 37.3428 28.2463 65.8034Z" fill="#FF3D00"/>
<path d="M107.499 197.083C130.639 197.083 151.664 188.228 167.56 173.827L139.834 150.365C130.54 157.438 119.179 161.262 107.499 161.25C84.1987 161.25 64.4143 146.392 56.9609 125.658L27.7478 148.166C42.5738 177.178 72.6828 197.083 107.499 197.083Z" fill="#4CAF50"/>
<path d="M195.341 89.9551H188.125V89.5834H107.5V125.417H158.128C154.595 135.344 148.231 144.019 139.822 150.37L139.835 150.361L167.561 173.823C165.599 175.606 197.083 152.292 197.083 107.5C197.083 101.493 196.465 95.6302 195.341 89.9551Z" fill="#1976D2"/>
</svg>
